HIERARCHY
ROOT Hips
{
	OFFSET 0.00 0.00 0.00
	CHANNELS 6 Xposition Yposition Zposition Yrotation Xrotation Zrotation
	JOINT Spine
	{
		OFFSET	0.0000	9.2263	1.5771
		CHANNELS 3 Xrotation Yrotation Zrotation
		JOINT Spine1
		{
			OFFSET	0.0000	16.2540	-0.1656
			CHANNELS 3 Xrotation Yrotation Zrotation
			JOINT Spine2
			{
				OFFSET	0.0000	13.6396	-1.2923
				CHANNELS 3 Xrotation Yrotation Zrotation
				JOINT Neck
				{
					OFFSET	0.0000	13.8774	-4.3542
					CHANNELS 3 Xrotation Yrotation Zrotation
					JOINT Neck1
					{
						OFFSET	0.0000	4.3400	0.9269
						CHANNELS 3 Xrotation Yrotation Zrotation
						JOINT Head
						{
							OFFSET	0.0000	4.0266	0.8585
							CHANNELS 3 Xrotation Yrotation Zrotation
							End Site
							{
								OFFSET 0.0000 23.0297 0.1231
							}
						}
					}
				}
				JOINT LeftShoulder
				{
					OFFSET	6.1442	10.1870	-3.7932
					CHANNELS 3 Zrotation Xrotation Yrotation
					JOINT LeftArm
					{
						OFFSET	12.3191	-1.1130	-1.7935
						CHANNELS 3 Zrotation Xrotation Yrotation
						JOINT LeftForeArm
						{
							OFFSET	27.6870	0.0000	0.0000
							CHANNELS 3 Xrotation Zrotation Yrotation
							JOINT LeftHand
							{
								OFFSET	27.8738	0.0000	0.0000
								CHANNELS 3 Zrotation Yrotation Xrotation
								JOINT LeftHandThumb1
								{
									OFFSET	2.3785	-1.0029	2.6209
									CHANNELS 3 Zrotation Xrotation Yrotation
									JOINT LeftHandThumb2
									{
										OFFSET	3.3624	-1.0029	2.8398
										CHANNELS 3 Zrotation Xrotation Yrotation
										JOINT LeftHandThumb3
										{
											OFFSET	4.5018	-1.3445	2.1783
											CHANNELS 3 Zrotation Xrotation Yrotation
											End Site
											{
												OFFSET 2.6000 -1.0000 1.0000
											}
										}
									}
								}
								JOINT LeftHandMiddle1
								{
									OFFSET	10.4639	0.6148	0.4298
									CHANNELS 3 Zrotation Xrotation Yrotation
									JOINT LeftHandMiddle2
									{
										OFFSET	5.7921	0.0000	0.0000
										CHANNELS 3 Zrotation Xrotation Yrotation
										JOINT LeftHandMiddle3
										{
											OFFSET	3.7132	0.0000	0.0000
											CHANNELS 3 Zrotation Xrotation Yrotation
											End Site
											{
												OFFSET 2.3000 0.0000 0.0000
											}
										}
									}
								}
								JOINT LeftHandIndex1
								{
									OFFSET	10.3945	0.6148	2.7055
									CHANNELS 3 Zrotation Xrotation Yrotation
									JOINT LeftHandIndex2
									{
										OFFSET	5.5493	0.0000	0.0000
										CHANNELS 3 Zrotation Xrotation Yrotation
										JOINT LeftHandIndex3
										{
											OFFSET	3.3911	0.0000	0.0000
											CHANNELS 3 Zrotation Xrotation Yrotation
											End Site
											{
												OFFSET 2.5000 0.0000 0.0000
											}
										}
									}
								}
								JOINT LeftHandRing1
								{
									OFFSET	10.3252	0.3211	-1.8755
									CHANNELS 3 Zrotation Xrotation Yrotation
									JOINT LeftHandRing2
									{
										OFFSET	5.4452	0.0000	0.0000
										CHANNELS 3 Zrotation Xrotation Yrotation
										JOINT LeftHandRing3
										{
											OFFSET	3.7132	0.0000	0.0000
											CHANNELS 3 Zrotation Xrotation Yrotation
											End Site
											{
												OFFSET 2.0000 0.0000 0.0000
											}
										}
									}
								}
								JOINT LeftHandPinky1
								{
									OFFSET	10.0130	-0.0783	-3.9671
									CHANNELS 3 Zrotation Xrotation Yrotation
									JOINT LeftHandPinky2
									{
										OFFSET	3.6763	0.0000	0.0000
										CHANNELS 3 Zrotation Xrotation Yrotation
										JOINT LeftHandPinky3
										{
											OFFSET	2.8113	0.0000	0.0000
											CHANNELS 3 Zrotation Xrotation Yrotation
											End Site
											{
												OFFSET 2.9000 0.0000 0.0000
											}
										}
									}
								}
							}
						}
					}
				}
				JOINT RightShoulder
				{
					OFFSET	-6.1402	10.1870	-3.7932
					CHANNELS 3 Zrotation Xrotation Yrotation
					JOINT RightArm
					{
						OFFSET	-12.3231	-1.1130	-1.7935
						CHANNELS 3 Zrotation Xrotation Yrotation
						JOINT RightForeArm
						{
							OFFSET	-27.6870	0.0000	0.0000
							CHANNELS 3 Xrotation Zrotation Yrotation
							JOINT RightHand
							{
								OFFSET	-27.8738	0.0000	0.0000
								CHANNELS 3 Zrotation Yrotation Xrotation
								JOINT RightHandThumb1
								{
									OFFSET	-2.5178	-0.9367	2.5137
									CHANNELS 3 Zrotation Xrotation Yrotation
									JOINT RightHandThumb2
									{
										OFFSET	-3.2638	-1.0870	2.9669
										CHANNELS 3 Zrotation Xrotation Yrotation
										JOINT RightHandThumb3
										{
											OFFSET	-4.4165	-1.3703	2.1350
											CHANNELS 3 Zrotation Xrotation Yrotation
											End Site
											{
												OFFSET -2.6000 -1.0000 1.0000
											}
										}
									}
								}
								JOINT RightHandIndex1
								{
									OFFSET	-10.4665	0.4896	2.7120
									CHANNELS 3 Zrotation Xrotation Yrotation
									JOINT RightHandIndex2
									{
										OFFSET	-5.3768	0.0000	0.0000
										CHANNELS 3 Zrotation Xrotation Yrotation
										JOINT RightHandIndex3
										{
											OFFSET	-3.3855	0.0000	0.0000
											CHANNELS 3 Zrotation Xrotation Yrotation
											End Site
											{
												OFFSET -2.6000 0.0000 0.0000
											}
										}
									}
								}
								JOINT RightHandMiddle1
								{
									OFFSET	-10.7596	0.4896	0.4278
									CHANNELS 3 Zrotation Xrotation Yrotation
									JOINT RightHandMiddle2
									{
										OFFSET	-5.6168	0.0000	0.0000
										CHANNELS 3 Zrotation Xrotation Yrotation
										JOINT RightHandMiddle3
										{
											OFFSET	-3.7364	0.0000	0.0000
											CHANNELS 3 Zrotation Xrotation Yrotation
											End Site
											{
												OFFSET -2.3000 0.0000 0.0000
											}
										}
									}
								}
								JOINT RightHandRing1
								{
									OFFSET	-10.4702	0.3879	-1.9363
									CHANNELS 3 Zrotation Xrotation Yrotation
									JOINT RightHandRing2
									{
										OFFSET	-5.4013	0.0000	0.0000
										CHANNELS 3 Zrotation Xrotation Yrotation
										JOINT RightHandRing3
										{
											OFFSET	-3.3916	0.0000	0.0000
											CHANNELS 3 Zrotation Xrotation Yrotation
											End Site
											{
												OFFSET -2.2000 0.0000 0.0000
											}
										}
									}
								}
								JOINT RightHandPinky1
								{
									OFFSET	-9.9715	-0.1191	-3.9540
									CHANNELS 3 Zrotation Xrotation Yrotation
									JOINT RightHandPinky2
									{
										OFFSET	-3.6528	0.0000	0.0000
										CHANNELS 3 Zrotation Xrotation Yrotation
										JOINT RightHandPinky3
										{
											OFFSET	-2.7820	0.0000	0.0000
											CHANNELS 3 Zrotation Xrotation Yrotation
											End Site
											{
												OFFSET -2.9000 0.0000 0.0000
											}
										}
									}
								}
							}
						}
					}
				}
			}
		}
	}
	JOINT LeftUpLeg
	{
		OFFSET	9.6338	-3.2733	0.0000
		CHANNELS 3 Xrotation Yrotation Zrotation
		JOINT LeftLeg
		{
			OFFSET	0.0000	-41.7300	-1.7300
			CHANNELS 3 Xrotation Yrotation Zrotation
			JOINT LeftFoot
			{
				OFFSET	0.0126	-39.1900	-0.8477
				CHANNELS 3 Xrotation Yrotation Zrotation
				JOINT LeftToeBase
				{
					OFFSET	-0.1833	-12.1931	8.2823
					CHANNELS 3 Xrotation Yrotation Zrotation
					End Site
					{
						OFFSET 0.0000 0.0000 10.1681
					}
				}
			}
		}
	}
	JOINT RightUpLeg
	{
		OFFSET	-9.6338	-3.2733	0.0000
		CHANNELS 3 Xrotation Yrotation Zrotation
		JOINT RightLeg
		{
			OFFSET	0.0000	-41.7300	-1.7300
			CHANNELS 3 Xrotation Yrotation Zrotation
			JOINT RightFoot
			{
				OFFSET	0.0126	-39.1900	-0.8477
				CHANNELS 3 Xrotation Yrotation Zrotation
				JOINT RightToeBase
				{
					OFFSET	-0.1833	-12.1931	8.2823
					CHANNELS 3 Xrotation Yrotation Zrotation
					End Site
					{
						OFFSET 0.0032 0.0000 10.1681
					}
				}
			}
		}
	}
}
MOTION
Frames: 4
Frame Time: 0.0333333
14.8796 95.0301 27.8673 -68.7276 28.0114 57.3124 4.6255 -0.0490 -0.0693 8.3060 -0.7742 0.9673 8.3574 -0.4337 1.2349 -5.3249 13.6650 -9.9337 -0.0000 0.0000 -0.0000 33.0957 23.8762 -49.9635 -10.8316 8.9660 -7.0459 -54.7677 -25.3923 -4.8385 -0.0000 -0.0000 -65.6260 12.8313 -21.4524 -12.5831 2.1498 5.9368 -4.4131 -0.0068 0.0026 23.0313 19.7488 1.1724 28.1552 -29.4632 0.0024 -0.0082 -56.0852 0.0067 -0.0125 -22.2159 0.0011 -0.0057 -17.3610 -0.0076 -8.4728 -55.7900 0.0066 -0.0124 -16.6014 0.0006 -0.0043 -40.0067 0.0040 5.9511 -61.6001 0.0079 -0.0132 -25.6951 0.0015 -0.0065 -53.6942 -5.9050 14.6522 -61.8135 0.0079 -0.0133 -31.3426 0.0022 -0.0078 1.1425 4.8018 12.8871 29.0252 -16.2702 29.0286 -0.0000 0.0000 103.5858 -26.4404 17.9631 40.7747 2.2524 -2.0224 12.3503 0.0046 0.0015 -31.4403 -18.2697 5.0628 -37.2671 34.7506 0.0095 5.1169 74.1717 0.0058 0.0076 20.7415 0.0005 0.0028 48.5494 0.0030 0.0062 74.1943 0.0058 0.0076 21.1960 0.0005 0.0029 57.3353 0.0039 -3.9722 82.6953 0.0069 0.0079 26.7043 0.0008 0.0036 69.0726 -0.2728 -11.0498 81.9869 0.0068 0.0078 35.6416 0.0015 0.0046 -80.4734 -11.7199 25.7935 132.7448 -10.8524 -7.2517 -42.9854 24.1914 5.7146 -0.4142 -0.0000 0.0000 -74.2959 17.7651 -49.8646 44.5597 -6.6373 0.7359 -11.1212 -1.2485 3.6600 -5.5254 -0.0000 -0.0000 
15.3658 94.5081 27.5330 -67.0961 26.3332 51.8457 4.4313 0.1659 0.3125 7.9478 -0.6494 1.7545 7.9914 -0.3137 2.0104 -4.7598 13.3753 -9.6781 -0.0000 0.0000 -0.0000 31.2910 23.6433 -49.7522 -10.1183 8.8972 -6.6708 -55.1210 -26.6666 -7.5823 0.0000 -0.0000 -85.1009 2.3640 -19.1265 -9.8350 -0.1411 1.1929 -9.2726 -0.0079 0.0026 28.2842 19.6876 1.9675 30.3735 -41.3318 0.0043 -0.0106 -67.4301 0.0093 -0.0139 -21.6396 0.0011 -0.0055 -28.3800 0.0139 -6.4296 -67.3016 0.0092 -0.0139 -19.2203 0.0008 -0.0049 -50.7535 -0.0007 4.7693 -74.8158 0.0111 -0.0145 -26.3878 0.0016 -0.0067 -63.4364 -2.5701 12.4681 -74.4947 0.0110 -0.0145 -34.0929 0.0026 -0.0084 0.8134 4.7509 13.2035 30.2307 -18.2155 29.8331 -0.0000 0.0000 104.4932 -25.1983 16.3034 36.2253 2.4572 -2.1504 13.3283 0.0047 0.0015 -32.4733 -18.2140 5.2657 -37.8852 37.1810 0.0016 4.6838 76.4961 0.0061 0.0077 21.3221 0.0005 0.0029 50.7735 0.0032 0.0064 76.4903 0.0061 0.0077 21.2052 0.0005 0.0029 59.2676 0.0042 -3.7541 85.3701 0.0073 0.0079 26.9659 0.0009 0.0036 70.9540 0.0737 -10.6624 84.6399 0.0072 0.0079 36.3127 0.0016 0.0047 -89.6974 15.3288 14.0322 130.0602 -0.7110 -7.5604 -34.2990 17.9918 5.4176 -1.3474 -0.0000 -0.0000 -70.9850 14.7226 -48.6967 46.8245 -7.4533 1.6713 -12.7027 -5.5963 3.8023 -5.3334 0.0000 -0.0000 
15.0250 94.3519 26.4738 -66.6732 23.9420 44.4789 4.3178 0.1143 0.7578 7.7388 -0.5790 2.6386 7.7810 -0.2582 2.8822 -3.8295 13.0801 -9.3396 -0.0000 0.0000 -0.0000 29.5053 23.6090 -48.7033 -9.7592 8.8813 -6.5872 -56.1996 -24.1898 -10.4345 -0.0000 0.0000 -100.0220 -7.7151 -16.8040 -6.2901 -1.8544 -1.4274 -12.2480 -0.0085 0.0025 31.3788 19.6372 2.4346 31.6813 -48.3238 0.0057 -0.0118 -74.1136 0.0109 -0.0145 -21.3001 0.0010 -0.0055 -34.8431 0.0088 -5.1511 -74.0852 0.0109 -0.0145 -20.7631 0.0010 -0.0053 -57.0722 0.0054 4.0162 -82.6017 0.0131 -0.0149 -26.7959 0.0016 -0.0068 -69.0109 -0.5693 11.1266 -81.9655 0.0129 -0.0149 -35.7131 0.0028 -0.0088 0.8389 4.7359 13.4143 29.9694 -15.0051 26.9965 0.0000 0.0000 106.1861 -24.9673 15.3010 33.9309 2.4247 -2.1225 13.1561 0.0047 0.0015 -32.2904 -18.2241 5.2298 -37.7758 36.7454 0.0031 4.7461 76.0843 0.0060 0.0077 21.2193 0.0005 0.0029 50.3794 0.0032 0.0063 76.0835 0.0060 0.0077 21.2035 0.0005 0.0029 58.9239 0.0041 -3.7856 84.8962 0.0072 0.0079 26.9196 0.0009 0.0036 70.6072 0.0148 -10.7141 84.1699 0.0071 0.0079 36.1939 0.0015 0.0047 -78.3460 29.7187 -0.2262 106.8425 4.9643 -6.6035 -17.1070 15.2762 -3.2262 0.4409 -0.0000 -0.0000 -65.3556 9.6266 -45.8036 47.6522 -8.1477 2.8300 -14.5449 -10.4426 3.4547 -4.9989 0.0000 -0.0000 
14.0320 94.3139 24.8562 -66.7911 20.9521 35.6541 4.2004 0.0240 1.2545 7.5598 -0.4664 3.5162 7.6061 -0.1773 3.7507 -2.5581 12.6279 -8.8534 -0.0000 0.0000 -0.0000 28.0509 23.1360 -46.4383 -9.5869 8.9292 -6.9493 -57.6225 -18.3130 -13.4001 0.0000 0.0000 -109.2140 -13.4993 -14.8283 -2.2185 -2.4613 -2.1823 -13.1983 -0.0087 0.0025 32.3312 19.6195 2.5781 32.0840 -50.4756 0.0062 -0.0121 -76.1704 0.0114 -0.0146 -21.1957 0.0010 -0.0054 -36.8252 0.0035 -4.7395 -76.1729 0.0114 -0.0146 -21.2380 0.0010 -0.0054 -59.0138 0.0080 3.7707 -84.9975 0.0137 -0.0150 -26.9215 0.0016 -0.0068 -70.6852 0.0554 10.6947 -84.2647 0.0135 -0.0150 -36.2118 0.0029 -0.0089 0.8754 4.7325 13.4804 30.0278 -8.4439 23.0511 0.0000 0.0000 108.0847 -25.8591 14.8621 33.1527 2.4039 -2.1128 13.0657 0.0047 0.0014 -32.1953 -18.2292 5.2112 -37.7188 36.5237 0.0020 4.7918 75.8703 0.0060 0.0077 21.1659 0.0005 0.0029 50.1747 0.0031 0.0063 75.8722 0.0060 0.0077 21.2027 0.0005 0.0029 58.7466 0.0041 -3.8087 84.6499 0.0072 0.0079 26.8955 0.0008 0.0036 70.4387 -0.0163 -10.7569 83.9257 0.0071 0.0079 36.1321 0.0015 0.0047 -60.1056 26.7031 -11.7408 77.3936 4.8366 -5.7911 -1.5585 17.3461 -13.2400 0.9280 -0.0000 0.0000 -57.8778 3.5185 -40.2097 47.0690 -8.7304 3.8937 -16.4634 -16.1417 2.6037 -4.4260 0.0000 -0.0000 
